Coordinates
version=1
nRows=10
nColumns=63
inDegrees=yes

Units are S.I. units (second, meters, Newtons, ...)
If the header above contains a line with 'inDegrees', this indicates whether rotational values are in degrees (yes) or radians (no).

endheader
time	pelvis_tilt	pelvis_list	pelvis_rotation	pelvis_tx	pelvis_ty	pelvis_tz	hip_flexion_r	hip_adduction_r	hip_rotation_r	knee_angle_r	knee_angle_r_beta	ankle_angle_r	subtalar_angle_r	mtp_angle_r	hip_flexion_l	hip_adduction_l	hip_rotation_l	knee_angle_l	knee_angle_l_beta	ankle_angle_l	subtalar_angle_l	mtp_angle_l	L5_S1_Flex_Ext	L5_S1_Lat_Bending	L5_S1_axial_rotation	L4_L5_Flex_Ext	L4_L5_Lat_Bending	L4_L5_axial_rotation	L3_L4_Flex_Ext	L3_L4_Lat_Bending	L3_L4_axial_rotation	L2_L3_Flex_Ext	L2_L3_Lat_Bending	L2_L3_axial_rotation	L1_L2_Flex_Ext	L1_L2_Lat_Bending	L1_L2_axial_rotation	L1_T12_Flex_Ext	L1_T12_Lat_Bending	L1_T12_axial_rotation	Abs_r3	Abs_r2	Abs_r1	Abs_t1	Abs_t2	neck_flexion	neck_bending	neck_rotation	arm_flex_r	arm_add_r	arm_rot_r	elbow_flex_r	pro_sup_r	wrist_flex_r	wrist_dev_r	arm_flex_l	arm_add_l	arm_rot_l	elbow_flex_l	pro_sup_l	wrist_flex_l	wrist_dev_l
      4.50000000	      2.23795737	     -2.66682656	     91.09924617	      0.31605091	      1.02559066	      0.45065143	      2.23631818	     -4.61611818	    -10.92537663	     10.66821001	      0.18619539	     29.10261200	     14.12632262	      0.00000000	      3.91564223	      2.89036092	     -1.80763898	     11.18167488	      0.19515704	     25.06907894	     -4.41970554	      0.00000000	     -0.05768105	     -0.20942925	     -0.10016330	     -0.10711947	     -0.27854090	     -0.10642351	     -0.09476419	     -0.50920627	     -0.10642351	     -0.06592367	     -0.50920627	     -0.08764289	     -0.05356262	     -0.42706812	     -0.08138268	     -0.03295895	     -0.32440590	     -0.07512248	     -0.41200996	     -2.36910553	     -0.55707824	      0.00000000	      0.00000000	     27.51662838	      4.07922964	     -6.56915298	      3.87686332	    -13.25533955	      6.85648709	     33.91694395	     77.22918680	     -4.93951940	     -0.43120094	     -1.33552023	    -18.28191199	     37.05601512	     21.63885212	     79.85850993	     -9.38775575	      2.83793951
      4.51666667	      2.24315018	     -2.74012771	     91.46750790	      0.31519615	      1.02551546	      0.45057448	      2.21443285	     -4.65366069	    -11.28301680	     10.58753564	      0.18478736	     29.11139504	     14.17373757	      0.00000000	      4.04510636	      2.94671575	     -1.51133876	     11.24235204	      0.19621606	     25.00884619	     -4.48567791	      0.00000000	     -0.04167942	     -0.20572634	     -0.16012940	     -0.07740284	     -0.27361604	     -0.17013749	     -0.06847511	     -0.50020303	     -0.17013749	     -0.04763541	     -0.50020303	     -0.14011323	     -0.03870351	     -0.41951716	     -0.13010514	     -0.02381562	     -0.31867011	     -0.12009705	     -0.29771191	     -2.32721755	     -0.89059170	      0.00000000	      0.00000000	     27.66557837	      4.25936729	     -6.56306197	      3.61672224	    -13.44792902	      6.05563191	     34.04477185	     77.72385240	     -5.49203747	     -1.15234680	     -0.63997192	    -18.52692433	     41.55517554	     20.37287366	     79.16938995	    -10.09004575	      1.66367945
      4.53333333	      2.21683808	     -2.76414485	     91.69254276	      0.31449936	      1.02555382	      0.45009581	      2.12566207	     -4.70908395	    -11.48010435	     10.48013877	      0.18291293	     29.11784424	     14.21451254	      0.00000000	      3.99867936	      3.05106554	     -1.16680330	     11.12937036	      0.19424416	     24.84726597	     -4.77049239	      0.00000000	     -0.02840010	     -0.20008964	     -0.18211865	     -0.05274183	     -0.26611921	     -0.19350107	     -0.04665853	     -0.48649794	     -0.19350107	     -0.03245848	     -0.48649794	     -0.15935382	     -0.02637234	     -0.40802278	     -0.14797141	     -0.01622782	     -0.30993884	     -0.13658899	     -0.20285909	     -2.26345397	     -1.01288932	      0.00000000	      0.00000000	     27.79168840	      4.31634274	     -6.56606617	      3.28053373	    -13.48866555	      4.30495507	     34.30529738	     78.88078401	     -6.30912219	     -1.34302694	      0.67889981	    -18.75629270	     49.94801648	     18.44078119	     78.05963669	    -11.84428180	     -0.31722434
      4.55000000	      2.20218745	     -2.78707549	     91.69217719	      0.31416089	      1.02559067	      0.44912087	      2.03396251	     -4.72676665	    -11.39362371	     10.35691690	      0.18076230	     29.03077363	     14.14864266	      0.00000000	      3.86241879	      3.11215858	     -1.18256462	     10.94501832	      0.19102661	     24.76117189	     -4.81831868	      0.00000000	     -0.00959724	     -0.19123201	     -0.18405161	     -0.01782303	     -0.25433858	     -0.19555484	     -0.01576730	     -0.46496151	     -0.19555484	     -0.01096868	     -0.46496151	     -0.16104516	     -0.00891199	     -0.38996032	     -0.14954193	     -0.00548386	     -0.29621839	     -0.13803871	     -0.06855210	     -2.16325476	     -1.02363985	      0.00000000	      0.00000000	     27.90001043	      4.33707931	     -6.51426626	      3.11992761	    -13.70797695	      3.47172377	     34.47854815	     79.02328160	     -7.84963419	     -1.31495346	      1.82085864	    -18.76537129	     57.55645106	     16.56625590	     82.00351309	    -14.60745577	     -1.48182748
      4.56666667	      2.13853820	     -2.77806517	     91.63466842	      0.31359942	      1.02551447	      0.44773532	      1.92037038	     -4.83408193	    -11.35791956	     10.34564611	      0.18056559	     28.95651745	     14.16609138	      0.00000000	      3.70631916	      3.23775192	     -1.23300659	     10.88622253	      0.19000043	     24.85683172	     -4.84212929	      0.00000000	      0.00549313	     -0.18354974	     -0.20763528	      0.01020130	     -0.24412115	     -0.22061248	      0.00902467	     -0.44628283	     -0.22061248	      0.00627810	     -0.44628283	     -0.18168087	      0.00510092	     -0.37429462	     -0.16870366	      0.00313878	     -0.28431854	     -0.15572646	      0.03923690	     -2.07635132	     -1.15480512	      0.00000000	      0.00000000	     28.00852697	      4.38781569	     -6.49197279	      3.18840344	    -14.15849828	      3.10739540	     34.35227664	     78.92183752	     -8.04936352	     -1.33395270	      1.62688143	    -18.92295214	     57.74421440	     16.38641695	     82.09226315	    -14.75246539	     -1.48943343
      4.58333333	      2.25032674	     -2.70225810	     91.48258933	      0.31336010	      1.02595261	      0.44549483	      1.51779627	     -4.66811211	    -11.15914333	      9.91668228	      0.17307876	     28.49373308	     14.07092639	      0.00000000	      3.16823575	      3.12986294	     -1.78364817	     10.27724718	      0.17937180	     24.98942901	     -4.03182521	      0.00000000	      0.01039512	     -0.14059262	     -0.20929324	      0.01930477	     -0.18698819	     -0.22237407	      0.01707814	     -0.34183690	     -0.22237407	      0.01188058	     -0.34183690	     -0.18313159	      0.00965291	     -0.28669647	     -0.17005076	      0.00593977	     -0.21777797	     -0.15696993	      0.07425128	     -1.59041185	     -1.16402622	      0.00000000	      0.00000000	     28.04523400	      4.35685721	     -5.44634544	      2.77953948	    -13.94158713	      0.57998860	     34.91755940	     79.96261127	     -9.98476823	     -0.95401142	      4.99308598	    -14.40745000	    151.89385750	      0.83997399	     19.66654929	    -15.50952332	     -4.36613816
      4.60000000	      2.19955358	     -2.56499854	     91.42389379	      0.31317743	      1.02607319	      0.44386272	      1.16505049	     -4.71013182	    -11.18246161	      9.74770039	      0.17012947	     28.20380604	     14.01234874	      0.00000000	      2.75103797	      3.20962635	     -1.93174571	      9.97862896	      0.17415993	     25.17181579	     -3.76401798	      0.00000000	      0.00371911	     -0.13529053	     -0.18936847	      0.00690675	     -0.17993640	     -0.20120400	      0.00611012	     -0.32894539	     -0.20120400	      0.00425057	     -0.32894539	     -0.16569741	      0.00345356	     -0.27588445	     -0.15386188	      0.00212510	     -0.20956503	     -0.14202635	      0.02656520	     -1.53043353	     -1.05321062	      0.00000000	      0.00000000	     28.06288198	      4.28187272	     -5.49840504	      2.58834552	    -14.08149740	     -0.29685780	     35.09319612	     79.61634922	    -10.92813435	     -0.85883210	      4.84271098	    -14.71289317	    151.01998392	      0.83663281	     18.85485073	    -16.95703786	     -3.65323460
      4.61666667	      2.17997633	     -2.44621908	     91.29396074	      0.31307041	      1.02609579	      0.44270497	      0.92223775	     -4.73848170	    -11.19280178	      9.69790358	      0.16926035	     27.92219173	     13.94481180	      0.00000000	      2.43949966	      3.22857846	     -2.37795955	      9.78668695	      0.17080991	     25.49701695	     -3.17490546	      0.00000000	     -0.00566473	     -0.12836205	     -0.16216161	     -0.01051997	     -0.17072152	     -0.17229671	     -0.00930658	     -0.31209948	     -0.17229671	     -0.00647422	     -0.31209948	     -0.14189141	     -0.00526027	     -0.26175589	     -0.13175631	     -0.00323683	     -0.19883281	     -0.12162121	     -0.04046258	     -1.45205715	     -0.90189425	      0.00000000	      0.00000000	     28.06272336	      4.15930252	     -5.62045824	      2.50776704	    -14.15355588	     -1.10001440	     35.22948963	     79.31678764	    -11.56677087	     -0.49603011	      4.64134009	    -15.09062849	    148.74699174	      0.86054205	     16.15413618	    -18.27863018	     -3.87798387
      4.63333333	      2.13079602	     -2.26172374	     91.20717448	      0.31283325	      1.02618178	      0.44197535	      0.64820114	     -4.81405845	    -11.33789146	      9.70096358	      0.16931376	     27.63542772	     13.89901225	      0.00000000	      2.11856600	      3.30931583	     -2.45647265	      9.63907874	      0.16823366	     25.78221923	     -3.02307869	      0.00000000	     -0.02852750	     -0.12741854	     -0.11779425	     -0.05297842	     -0.16946666	     -0.12515639	     -0.04686783	     -0.30980544	     -0.12515639	     -0.03260408	     -0.30980544	     -0.10306997	     -0.02649063	     -0.25983189	     -0.09570783	     -0.01630061	     -0.19737132	     -0.08834569	     -0.20376906	     -1.44138400	     -0.65513629	      0.00000000	      0.00000000	     28.06465263	      4.18556262	     -5.75641971	      2.48558348	    -14.14404696	     -1.85404234	     35.15508807	     78.75805285	    -11.88210023	     -0.28229459	      4.70870090	    -15.47216537	    147.46956174	      0.81860588	     14.75238591	    -18.84101104	     -3.31635168
      4.65000000	      2.09757305	     -2.22498406	     90.90453383	      0.31305028	      1.02599242	      0.44118947	      0.58244875	     -4.87417762	    -11.26163616	      9.73451447	      0.16989933	     27.54037159	     14.05329650	      0.00000000	      1.93724212	      3.32774369	     -3.27108030	      9.45919088	      0.16509403	     26.05555598	     -2.35646516	      0.00000000	     -0.02374968	     -0.12899681	     -0.08430037	     -0.04410553	     -0.17156576	     -0.08956915	     -0.03901835	     -0.31364285	     -0.08956915	     -0.02714351	     -0.31364285	     -0.07376283	     -0.02205395	     -0.26305030	     -0.06849405	     -0.01357057	     -0.19981606	     -0.06322528	     -0.16964159	     -1.45923773	     -0.46885339	      0.00000000	      0.00000000	     28.07092059	      4.21886751	     -5.82484061	      2.49716163	    -14.20682273	     -1.86081309	     35.09533019	     78.53515402	    -11.92347614	      0.18416136	      4.29851490	    -16.02402876	    144.65791658	      0.90070607	     10.58454182	    -19.07132966	     -4.61728945
